<?xml version="1.0" encoding="utf-8"?>
<!-- Generator: Adobe Illustrator 15.1.0, SVG Export Plug-In . SVG Version: 6.00 Build 0)  -->
<!DOCTYPE svg PUBLIC "-//W3C//DTD SVG 1.1//EN" "http://www.w3.org/Graphics/SVG/1.1/DTD/svg11.dtd">
<svg version="1.1" id="Capa_1" xmlns="http://www.w3.org/2000/svg" xmlns:xlink="http://www.w3.org/1999/xlink" x="0px" y="0px"
	 width="512px" height="512px" viewBox="0 0 512 512" enable-background="new 0 0 512 512" xml:space="preserve">
<path fill="#C66477" d="M473.581,184.114l-26.434-23.605l-53.86,20.7l-7.328,30.243l-28.167,127.773l91.462,39.845l11.35-14.654
	c15.659-32.117,24.441-68.207,24.441-106.353C485.045,232.28,481.012,207.439,473.581,184.114L473.581,184.114z"/>
<g>
	<g id="XMLID_855_">
		<g>
			<path fill="#C14C6A" d="M379.416,323.721l-32.1,15.504l-82.523,58.128l36.779,82.058l26.259,6.507v0.01
				c58.678-21.821,105.895-66.354,133.1-122.187L379.416,323.721z"/>
			<path fill="#CD7E89" d="M296.398,399.696l-17.509-12.272l-104.637-15.892l-50.273,80.767l23.141,29.146v0.01
				c29.437,12.661,61.872,19.672,95.944,19.672c29.815,0,58.371-5.363,84.767-15.199v-0.01L296.398,399.696z"/>
			<path fill="#D18A93" d="M179.075,369.466l-58.16-91.363L19.437,309.499v43.964c24.493,57.348,70.407,103.364,127.683,127.99
				v-0.01l36.775-84.092L179.075,369.466z"/>
			<path fill="#CE7F8B" d="M42.969,142.207l-27.555,30.535h-0.01C5.445,199.292,0,228.043,0,258.062
				c0,33.868,6.929,66.108,19.437,95.401h0.01l84.655-35.454l11.068-25.424l6.646-125.06L42.969,142.207z"/>
			<path fill="#D699A0" d="M186.193,39.184h-48.961C81.328,66.266,37.369,114.126,15.404,172.742h0.01l85.719,32.773l56.047-28.374
				l74.121-66.675L186.193,39.184z"/>
			<path fill="#C2516C" d="M387.041,211.452l-4.49-19.965l-55.332,14.028l-2.98,25.537c2.836,8.485,4.36,17.574,4.36,27.011
				c0,13.061-2.927,25.424-8.157,36.488l1.197,20.375l36.154,19.238l21.622-10.443c9.58-19.855,14.954-42.128,14.954-65.658
				C394.37,241.799,391.79,226.139,387.041,211.452L387.041,211.452z"/>
			<path fill="#BB215B" d="M320.441,294.551c-9.345,19.784-26.049,35.403-46.58,43.325l-7.893,14.847l16.451,42.127l13.979,4.847
				c36.469-13.735,66.222-41.136,83.018-75.976L320.441,294.551z"/>
			<path fill="#C04767" d="M273.861,337.876c-9.549,3.694-19.938,5.722-30.797,5.722c-11.627,0-22.702-2.313-32.804-6.53
				l-17.262,1.871l-20.532,41.857l11.428,16.557c18.178,7.737,38.177,12.016,59.169,12.016c18.771,0,36.745-3.418,53.334-9.672
				L273.861,337.876z"/>
			<path fill="#C04767" d="M164.786,292.586l-13.505-9.766l-44.073,15.272l-3.105,19.917c15.383,35.629,44.062,64.153,79.793,79.343
				l26.366-60.285C189.984,328.654,173.639,312.637,164.786,292.586L164.786,292.586z"/>
			<path fill="#E5C3C5" d="M359.591,44.711c-34.595-18.935-74.308-29.712-116.527-29.712c-37.942,0-73.847,8.689-105.832,24.186
				l39.416,82.905l39.159,17.562l123.211,20.859l35.851-76.078L359.591,44.711z"/>
		</g>
	</g>
</g>
<path fill="#D79DA3" d="M511.636,165.332c1.218,3.511-0.727,7.329-4.269,8.434l-33.161,10.348l-62.813,19.6
	c-14.042-43.643-44.522-79.906-84.174-101.481l31.913-57.521l16.889-30.439c1.78-3.224,5.875-4.36,9.058-2.508
	C443.787,45.796,489.2,100.216,511.636,165.332L511.636,165.332z"/>
<path fill="#C2516C" d="M157.529,258.062c0-10.205,1.781-19.989,5.066-29.058l-0.755-35.654h-36.678l-24.029,12.165
	c-6.059,16.366-9.375,34.073-9.375,52.547c0,21.299,4.401,41.564,12.344,59.947l60.684-25.424
	C160.118,282.033,157.529,270.355,157.529,258.062z"/>
<path fill="#C7697A" d="M207.352,132.01l-30.705-9.922c-34.728,16.97-61.984,46.866-75.515,83.426l61.462,23.49
	c7.492-20.736,22.763-37.747,42.302-47.501v-0.01l14.08-15.853L207.352,132.01z"/>
<path fill="#DDADB0" d="M315.078,124.955l-0.014-0.002c-21.41-11.606-45.933-18.196-72-18.196c-23.828,0-46.365,5.507-66.416,15.333
	l28.249,59.415c11.484-5.731,24.452-8.976,38.167-8.976c14.493,0,28.136,3.603,40.09,9.969l21.527,1.059l21.062-28.083
	L315.078,124.955z"/>
<path fill="#D28C95" d="M411.393,203.714l-24.81,7.738l-62.345,19.6c-6.97-20.972-22.195-38.518-41.438-48.743l31.819-57.354
	l12.599-22.722C366.87,123.808,397.351,160.071,411.393,203.714L411.393,203.714z"/>
</svg>
