<?xml version="1.0" encoding="utf-8"?>
<!-- Generator: Adobe Illustrator 15.1.0, SVG Export Plug-In . SVG Version: 6.00 Build 0)  -->
<!DOCTYPE svg PUBLIC "-//W3C//DTD SVG 1.1//EN" "http://www.w3.org/Graphics/SVG/1.1/DTD/svg11.dtd">
<svg version="1.1" id="Layer_1" xmlns="http://www.w3.org/2000/svg" xmlns:xlink="http://www.w3.org/1999/xlink" x="0px" y="0px"
	 width="576px" height="576px" viewBox="0 0 576 576" enable-background="new 0 0 576 576" xml:space="preserve">
<path fill="#006539" d="M294.038,340.371l38.056-79.6c21.386-44.733,54.733-82.676,96.352-109.629l0,0
	c16.243-10.52,37.775-7.327,50.267,7.453l0,0c16.831,19.915,9.38,50.452-14.731,60.376l0,0
	c-27.744,11.417-53.668,26.838-76.944,45.767L294.038,340.371z"/>
<path fill="#00A155" d="M294.038,340.371l9.198-87.748c5.171-49.312,23.886-96.233,54.072-135.567l0,0
	c11.783-15.353,33.141-19.555,49.861-9.812l0,0c22.529,13.127,25.735,44.397,6.337,61.823l0,0
	c-22.317,20.051-41.579,43.262-57.173,68.893L294.038,340.371z"/>
<path fill="#006539" d="M281.956,340.371L243.9,260.773c-21.386-44.733-54.733-82.676-96.352-109.629l0,0
	c-16.244-10.52-37.775-7.327-50.268,7.453l0,0c-16.831,19.915-9.379,50.452,14.732,60.377l0,0
	c27.744,11.417,53.667,26.838,76.944,45.767L281.956,340.371z"/>
<path opacity="0.1" enable-background="new    " d="M272.743,321.104L243.9,260.773c-21.386-44.733-54.733-82.676-96.352-109.629
	l0,0c-0.447-0.288-0.898-0.563-1.351-0.83c-3.861,13.479-0.351,28.846,11.245,39.266l0,0c22.319,20.051,41.579,43.262,57.174,68.893
	l32.671,53.706l26.807,21.801L272.743,321.104z"/>
<path fill="#00A155" d="M281.956,340.371l-9.201-87.748c-5.17-49.312-23.885-96.233-54.072-135.567l0,0
	c-11.783-15.353-33.14-19.555-49.861-9.812l0,0c-22.529,13.127-25.735,44.397-6.339,61.823l0,0
	c22.319,20.051,41.58,43.262,57.174,68.893L281.956,340.371z"/>
<g>
	<circle fill="#FDD05F" cx="160.093" cy="299.394" r="24.563"/>
	<circle fill="#FDD05F" cx="87.608" cy="289.571" r="24.563"/>
	<circle fill="#FDD05F" cx="29.716" cy="265.006" r="24.563"/>
	<circle fill="#FDD05F" cx="198.807" cy="441.393" r="24.563"/>
	<circle fill="#FDD05F" cx="126.322" cy="431.557" r="24.563"/>
	<circle fill="#FDD05F" cx="68.429" cy="406.993" r="24.563"/>
	<circle fill="#FDD05F" cx="377.19" cy="441.393" r="24.563"/>
	<circle fill="#FDD05F" cx="449.675" cy="431.557" r="24.563"/>
	<circle fill="#FDD05F" cx="507.566" cy="406.993" r="24.563"/>
	<circle fill="#FDD05F" cx="415.903" cy="299.394" r="24.563"/>
	<circle fill="#FDD05F" cx="488.389" cy="289.571" r="24.563"/>
	<circle fill="#FDD05F" cx="546.279" cy="265.006" r="24.563"/>
</g>
<path fill="#2C99DD" d="M551.096,265.358L551.096,265.358c-36.024,22.796-77.78,34.897-120.41,34.897
	c-34.33,0-68.36,6.385-100.356,18.826c-27.225,10.588-57.431,10.588-84.656,0c-31.996-12.441-66.026-18.826-100.356-18.826
	c-42.631,0-84.386-12.101-120.41-34.897l0,0c-13.087-8.281-29.217,4.773-23.843,19.299l22.526,60.897
	c18.845,50.949,67.039,85.1,121.354,85.996l0,0c24.558,0.405,48.797,5.632,71.338,15.383l54.124,23.41
	c11.229,4.856,23.964,4.856,35.194,0l54.124-23.41c22.542-9.751,46.781-14.977,71.338-15.383l0,0
	c54.315-0.896,102.508-35.048,121.354-85.996l22.525-60.897C580.312,270.132,564.185,257.077,551.096,265.358z M225.083,402.723
	l-43.146-3.489c-27.442-2.22-51.096-20.179-60.606-46.019l0,0c-3.532-9.598,4.036-19.637,14.235-18.881l42.348,3.133
	c27.826,2.059,51.877,20.197,61.5,46.387l0,0C242.958,393.492,235.316,403.552,225.083,402.723z M454.66,353.217L454.66,353.217
	c-9.509,25.84-33.163,43.798-60.606,46.019l-43.146,3.49c-10.232,0.826-17.874-9.233-14.333-18.868l0,0
	c9.624-26.189,33.675-44.331,61.5-46.388l42.349-3.132C450.624,333.582,458.192,343.62,454.66,353.217z"/>
<g opacity="0.15">
	<circle cx="59.433" cy="324.031" r="9.244"/>
	<circle cx="241.341" cy="340.043" r="9.244"/>
	<circle cx="297.248" cy="409.483" r="9.244"/>
	<circle cx="474.732" cy="375.859" r="9.244"/>
</g>
<g opacity="0.2">
	<circle fill="#FFFFFF" cx="315.735" cy="358.529" r="9.244"/>
	<circle fill="#FFFFFF" cx="101.265" cy="321.555" r="9.244"/>
	<circle fill="#FFFFFF" cx="255.959" cy="423.854" r="9.244"/>
	<circle fill="#FFFFFF" cx="101.265" cy="375.859" r="9.244"/>
	<circle fill="#FFFFFF" cx="508.935" cy="333.275" r="9.244"/>
	<circle fill="#FFFFFF" cx="473.499" cy="322.787" r="9.244"/>
</g>
</svg>
