<svg id="Capa_1" enable-background="new 0 0 512 512" height="512" viewBox="0 0 512 512" width="512" xmlns="http://www.w3.org/2000/svg"><g><g><g><path d="m358.579 262.723c145.834.237 153.421 130.907 153.421 130.907s-76.945-60.652-156.765 2.132z" fill="#0d7579"/><path d="m441.548 152.716 8.3 26.082c-.764.68-76.549 69.049-88.537 158.129l-29.699-3.996c8.943-66.451-42.607-125.938-42.607-125.938 1.941-2.696 48.712-65.882 152.543-54.277z" fill="#08585a"/></g><path d="m153.421 262.723c-145.834.237-153.421 130.907-153.421 130.907s76.945-60.652 156.765 2.132z" fill="#19a995"/><path d="m70.452 152.716-8.3 26.082c.764.68 76.549 69.049 88.537 158.129l29.699-3.996c-8.943-66.451 42.607-125.938 42.607-125.938-1.941-2.696-48.712-65.882-152.543-54.277z" fill="#0d7579"/></g><g><path d="m239.786 65.684-65.74 209.496 32.609-1.653 49.345 2.006 19.11-106.371-19.11-103.575z" fill="#19a995"/><path d="m333.966 268.32-65.614-202.807-12.352.074v209.946l49.455 2.011z" fill="#0d7579"/></g><g><path d="m150.741 334.93v51.146c0 31.593 15.329 61.444 41.003 79.852l64.256 46.072 21.752-144.013-21.752-138.316c-58.04 0-105.259 47.219-105.259 105.259z" fill="#fff5f5"/><path d="m256 229.671v282.329l64.255-46.072c25.675-18.408 41.003-48.26 41.003-79.852v-51.146c.001-58.04-47.218-105.259-105.258-105.259z" fill="#ebebf0"/></g><g><path d="m216.997 39.003c0 21.506 17.497 39.002 39.003 39.002l13.165-34.679-13.165-43.326c-21.506 0-39.003 17.497-39.003 39.003z" fill="#fef176"/><path d="m295.003 39.003c0-21.506-17.497-39.003-39.003-39.003v78.006c21.506 0 39.003-17.496 39.003-39.003z" fill="#fecb2e"/></g><path d="m39.003 122.834c-21.506 0-39.003 17.497-39.003 39.004 0 21.506 17.497 39.002 39.003 39.002s39.003-17.496 39.003-39.002c.001-21.507-17.496-39.004-39.003-39.004z" fill="#fc445f"/><path d="m472.997 122.834c-21.506 0-39.003 17.497-39.003 39.003s17.497 39.002 39.003 39.002 39.003-17.495 39.003-39.001c0-21.507-17.497-39.004-39.003-39.004z" fill="#e1105a"/><g><path d="m150.741 337.376h53.471v29.967h-53.471z" fill="#ebebf0"/></g><g><path d="m307.414 337.376h53.844v29.967h-53.844z" fill="#c6d0d8"/></g></g></svg>